<?xml version="1.0" encoding="UTF-8" standalone="no"?>

<svg
     xmlns="http://www.w3.org/2000/svg"

   width="50%"
   height="125%"
   viewBox=" 20 0 125 250"
   version="1.1"
   id="svg101"
   preserveAspectRatio="xMidYMid slice">

  <style>
    .svgAnimation{
    position: absolute;
    left:0;
    opacity: 0;
    }
    @keyframes liftBalloon {
    0% {
    transform: translateY(120%);
    }
    50%{
    opacity: 0.5;
    }
    100% {
    opacity: 0;
    transform: translateY(-50%);
    }
    }
    .balloonObject{
    animation: liftBalloon 7s;
    }
  </style>
  <g
     class="balloonObject"
     id="redBalloon">
    <path
       class="string"
       style="fill:none;stroke:#000000;stroke-width:0.665;stroke-linecap:butt;stroke-linejoin:miter;stroke-opacity:1;stroke-miterlimit:4;stroke-dasharray:none"
       d="m 64.255951,98.273808 c -0.984687,1.036801 -1.788094,2.253272 -2.456844,3.590772 -0.05635,0.11269 0.05635,0.26529 0,0.37798 -0.509622,1.01924 -0.09463,2.0794 -0.377976,3.2128 -0.623186,2.49274 -0.192003,5.56761 0.755952,7.9375 0.401182,1.00295 1.251918,2.36218 1.889881,3.21279 0.106908,0.14255 0.298291,0.21861 0.377976,0.37798 0.05635,0.11269 -0.03056,0.25575 0,0.37798 0.142325,0.56929 0.654375,1.02763 0.944941,1.5119 0.361299,0.60217 0.583639,1.28771 0.944941,1.88988 1.015,1.69167 2.189559,3.24519 3.023809,4.91369 0.08452,0.16904 -0.05976,0.38768 0,0.56697 0.345763,1.03729 0.285223,1.6974 -0.188989,2.64583 -0.05635,0.11269 0.08909,0.28889 0,0.37798 -0.04455,0.0445 -0.144444,-0.0446 -0.188987,0 -0.08909,0.0891 0.08909,0.28888 0,0.37797 -0.04454,0.0446 -0.144444,-0.0445 -0.188989,0 -0.063,0.063 -0.125992,0.50397 -0.188989,0.56697 -0.09449,0.0945 -0.28348,0.0945 -0.377976,0.18898 -0.04454,0.0445 0.04454,0.14445 0,0.18899 -0.126368,0.12637 -0.251608,-0.12637 -0.377976,0 -0.09449,0.0945 -0.09449,0.28349 -0.188987,0.37798 -0.04454,0.0445 -0.144444,-0.0445 -0.188989,0 -0.109537,0.10954 -0.268438,0.64641 -0.377976,0.75595 -0.08909,0.0891 -0.288888,-0.0891 -0.377975,0 -0.391026,0.39103 0.597535,-0.0153 -0.18899,0.37798 -0.114538,0.0573 -0.48777,0.10979 -0.566965,0.18898 -0.28348,0.28349 -0.472469,0.66146 -0.755951,0.94495 -0.08361,0.0836 -1.490594,0.18898 -1.700893,0.18898"
       id="path30" />
    <ellipse
       class="redCircle"
       style="fill:#ff0000;fill-rule:evenodd;stroke-width:0.264583"
       id="path10"
       cx="64.411957"
       cy="79.913589"
       rx="19.510675"
       ry="17.907059" />
    <ellipse
       class="whiteCircle"
       style="fill:#f9f9f9;fill-rule:evenodd;stroke-width:0.264583"
       id="path12"
       cx="52.384827"
       cy="77.240891"
       rx="5.3453903"
       ry="7.7508163" />
  </g>
  <g
     class="balloonObject"
     id="blueBalloon">
    <path
       class="string"
       style="fill:none;stroke:#000000;stroke-width:0.665;stroke-linecap:butt;stroke-linejoin:miter;stroke-opacity:1;stroke-miterlimit:4;stroke-dasharray:none"
       d="m 90.411957,119.913589 c -0.984687,1.036801 -1.788094,2.253272 -2.456844,3.590772 -0.05635,0.11269 0.05635,0.26529 0,0.37798 -0.509622,1.01924 -0.09463,2.0794 -0.377976,3.2128 -0.623186,2.49274 -0.192003,5.56761 0.755952,7.9375 0.401182,1.00295 1.251918,2.36218 1.889881,3.21279 0.106908,0.14255 0.298291,0.21861 0.377976,0.37798 0.05635,0.11269 -0.03056,0.25575 0,0.37798 0.142325,0.56929 0.654375,1.02763 0.944941,1.5119 0.361299,0.60217 0.583639,1.28771 0.944941,1.88988 1.015,1.69167 2.189559,3.24519 3.023809,4.91369 0.08452,0.16904 -0.05976,0.38768 0,0.56697 0.345763,1.03729 0.285223,1.6974 -0.188989,2.64583 -0.05635,0.11269 0.08909,0.28889 0,0.37798 -0.04455,0.0445 -0.144444,-0.0446 -0.188987,0 -0.08909,0.0891 0.08909,0.28888 0,0.37797 -0.04454,0.0446 -0.144444,-0.0445 -0.188989,0 -0.063,0.063 -0.125992,0.50397 -0.188989,0.56697 -0.09449,0.0945 -0.28348,0.0945 -0.377976,0.18898 -0.04454,0.0445 0.04454,0.14445 0,0.18899 -0.126368,0.12637 -0.251608,-0.12637 -0.377976,0 -0.09449,0.0945 -0.09449,0.28349 -0.188987,0.37798 -0.04454,0.0445 -0.144444,-0.0445 -0.188989,0 -0.109537,0.10954 -0.268438,0.64641 -0.377976,0.75595 -0.08909,0.0891 -0.288888,-0.0891 -0.377975,0 -0.391026,0.39103 0.597535,-0.0153 -0.18899,0.37798 -0.114538,0.0573 -0.48777,0.10979 -0.566965,0.18898 -0.28348,0.28349 -0.472469,0.66146 -0.755951,0.94495 -0.08361,0.0836 -1.490594,0.18898 -1.700893,0.18898"
       id="path66" />
    <ellipse
       class="blueCircle"
       style="fill:#0e4377;fill-rule:evenodd;stroke-width:0.264583"
       id="ellipse68"
       cx="90.411957"
       cy="119.913589"
       rx="19.510675"
       ry="17.907059" />
    <ellipse
       class="whiteCircle"
       style="fill:#f9f9f9;fill-rule:evenodd;stroke-width:0.264583"
       id="ellipse70"
       cx="78.384827"
       cy="117.240891"
       rx="5.3453903"
       ry="7.7508163" />
  </g>
  <g
     class="balloonObject"
     id="yellowBalloon">
    <path
       class="string"
       style="fill:none;stroke:#000000;stroke-width:0.665;stroke-linecap:butt;stroke-linejoin:miter;stroke-opacity:1;stroke-miterlimit:4;stroke-dasharray:none"
       d="m 91.411957,25.913589 c -0.984687,1.036801 -1.788094,2.253272 -2.456844,3.590772 -0.05635,0.11269 0.05635,0.26529 0,0.37798 -0.509622,1.01924 -0.09463,2.0794 -0.377976,3.2128 -0.623186,2.49274 -0.192003,5.56761 0.755952,7.9375 0.401182,1.00295 1.251918,2.36218 1.889881,3.21279 0.106908,0.14255 0.298291,0.21861 0.377976,0.37798 0.05635,0.11269 -0.03056,0.25575 0,0.37798 0.142325,0.56929 0.654375,1.02763 0.944941,1.5119 0.361299,0.60217 0.583639,1.28771 0.944941,1.88988 1.015,1.69167 2.189559,3.24519 3.023809,4.91369 0.08452,0.16904 -0.05976,0.38768 0,0.56697 0.345763,1.03729 0.285223,1.6974 -0.188989,2.64583 -0.05635,0.11269 0.08909,0.28889 0,0.37798 -0.04455,0.0445 -0.144444,-0.0446 -0.188987,0 -0.08909,0.0891 0.08909,0.28888 0,0.37797 -0.04454,0.0446 -0.144444,-0.0445 -0.188989,0 -0.063,0.063 -0.125992,0.50397 -0.188989,0.56697 -0.09449,0.0945 -0.28348,0.0945 -0.377976,0.18898 -0.04454,0.0445 0.04454,0.14445 0,0.18899 -0.126368,0.12637 -0.251608,-0.12637 -0.377976,0 -0.09449,0.0945 -0.09449,0.28349 -0.188987,0.37798 -0.04454,0.0445 -0.144444,-0.0445 -0.188989,0 -0.109537,0.10954 -0.268438,0.64641 -0.377976,0.75595 -0.08909,0.0891 -0.288888,-0.0891 -0.377975,0 -0.391026,0.39103 0.597535,-0.0153 -0.18899,0.37798 -0.114538,0.0573 -0.48777,0.10979 -0.566965,0.18898 -0.28348,0.28349 -0.472469,0.66146 -0.755951,0.94495 -0.08361,0.0836 -1.490594,0.18898 -1.700893,0.18898"
       id="path73" />
    <ellipse
       class="redCircle"
       style="fill:#fff59d;fill-rule:evenodd;stroke-width:0.264583"
       id="ellipse75"
       cx="91.411957"
       cy="25.913589"
       rx="19.510675"
       ry="17.907059" />
    <ellipse
       class="whiteCircle"
       style="fill:#f9f9f9;fill-rule:evenodd;stroke-width:0.264583"
       id="ellipse77"
       cx="78.384827"
       cy="25.240891"
       rx="5.3453903"
       ry="7.7508163" />
  </g>
  <g
     class="balloonObject"
     id="purpleBalloon">
    <path
       class="string"
       style="fill:none;stroke:#000000;stroke-width:0.665;stroke-linecap:butt;stroke-linejoin:miter;stroke-opacity:1;stroke-miterlimit:4;stroke-dasharray:none"
       d="m 35.411957,39.913589 c -0.984687,1.036801 -1.788094,2.253272 -2.456844,3.590772 -0.05635,0.11269 0.05635,0.26529 0,0.37798 -0.509622,1.01924 -0.09463,2.0794 -0.377976,3.2128 -0.623186,2.49274 -0.192003,5.56761 0.755952,7.9375 0.401182,1.00295 1.251918,2.36218 1.889881,3.21279 0.106908,0.14255 0.298291,0.21861 0.377976,0.37798 0.05635,0.11269 -0.03056,0.25575 0,0.37798 0.142325,0.56929 0.654375,1.02763 0.944941,1.5119 0.361299,0.60217 0.583639,1.28771 0.944941,1.88988 1.015,1.69167 2.189559,3.24519 3.023809,4.91369 0.08452,0.16904 -0.05976,0.38768 0,0.56697 0.345763,1.03729 0.285223,1.6974 -0.188989,2.64583 -0.05635,0.11269 0.08909,0.28889 0,0.37798 -0.04455,0.0445 -0.144444,-0.0446 -0.188987,0 -0.08909,0.0891 0.08909,0.28888 0,0.37797 -0.04454,0.0446 -0.144444,-0.0445 -0.188989,0 -0.063,0.063 -0.125992,0.50397 -0.188989,0.56697 -0.09449,0.0945 -0.28348,0.0945 -0.377976,0.18898 -0.04454,0.0445 0.04454,0.14445 0,0.18899 -0.126368,0.12637 -0.251608,-0.12637 -0.377976,0 -0.09449,0.0945 -0.09449,0.28349 -0.188987,0.37798 -0.04454,0.0445 -0.144444,-0.0445 -0.188989,0 -0.109537,0.10954 -0.268438,0.64641 -0.377976,0.75595 -0.08909,0.0891 -0.288888,-0.0891 -0.377975,0 -0.391026,0.39103 0.597535,-0.0153 -0.18899,0.37798 -0.114538,0.0573 -0.48777,0.10979 -0.566965,0.18898 -0.28348,0.28349 -0.472469,0.66146 -0.755951,0.94495 -0.08361,0.0836 -1.490594,0.18898 -1.700893,0.18898"
       id="path80" />
    <ellipse
       class="purpleCircle"
       style="fill:#8A2BE2;fill-rule:evenodd;stroke-width:0.264583"
       id="ellipse82"
       cx="35.411957"
       cy="39.913589"
       rx="19.510675"
       ry="17.907059" />
    <ellipse
       class="whiteCircle"
       style="fill:#f9f9f9;fill-rule:evenodd;stroke-width:0.264583"
       id="ellipse84"
       cx="26.384827"
       cy="39.240891"
       rx="5.3453903"
       ry="7.7508163" />
  </g>
  <g
     class="balloonObject"
     id="greenBalloon">
    <path
       class="string"
       style="fill:none;stroke:#000000;stroke-width:0.665;stroke-linecap:butt;stroke-linejoin:miter;stroke-opacity:1;stroke-miterlimit:4;stroke-dasharray:none"
       d="m 24.411957,120.913589 c -0.984687,1.036801 -1.788094,2.253272 -2.456844,3.590772 -0.05635,0.11269 0.05635,0.26529 0,0.37798 -0.509622,1.01924 -0.09463,2.0794 -0.377976,3.2128 -0.623186,2.49274 -0.192003,5.56761 0.755952,7.9375 0.401182,1.00295 1.251918,2.36218 1.889881,3.21279 0.106908,0.14255 0.298291,0.21861 0.377976,0.37798 0.05635,0.11269 -0.03056,0.25575 0,0.37798 0.142325,0.56929 0.654375,1.02763 0.944941,1.5119 0.361299,0.60217 0.583639,1.28771 0.944941,1.88988 1.015,1.69167 2.189559,3.24519 3.023809,4.91369 0.08452,0.16904 -0.05976,0.38768 0,0.56697 0.345763,1.03729 0.285223,1.6974 -0.188989,2.64583 -0.05635,0.11269 0.08909,0.28889 0,0.37798 -0.04455,0.0445 -0.144444,-0.0446 -0.188987,0 -0.08909,0.0891 0.08909,0.28888 0,0.37797 -0.04454,0.0446 -0.144444,-0.0445 -0.188989,0 -0.063,0.063 -0.125992,0.50397 -0.188989,0.56697 -0.09449,0.0945 -0.28348,0.0945 -0.377976,0.18898 -0.04454,0.0445 0.04454,0.14445 0,0.18899 -0.126368,0.12637 -0.251608,-0.12637 -0.377976,0 -0.09449,0.0945 -0.09449,0.28349 -0.188987,0.37798 -0.04454,0.0445 -0.144444,-0.0445 -0.188989,0 -0.109537,0.10954 -0.268438,0.64641 -0.377976,0.75595 -0.08909,0.0891 -0.288888,-0.0891 -0.377975,0 -0.391026,0.39103 0.597535,-0.0153 -0.18899,0.37798 -0.114538,0.0573 -0.48777,0.10979 -0.566965,0.18898 -0.28348,0.28349 -0.472469,0.66146 -0.755951,0.94495 -0.08361,0.0836 -1.490594,0.18898 -1.700893,0.18898"
       id="path87" />
    <ellipse
       class="greenCircle"
       style="fill:#90EE90;fill-rule:evenodd;stroke-width:0.264583"
       id="ellipse89"
       cx="24.411957"
       cy="120.913589"
       rx="19.510675"
       ry="17.907059" />
    <ellipse
       class="whiteCircle"
       style="fill:#f9f9f9;fill-rule:evenodd;stroke-width:0.264583"
       id="ellipse91"
       cx="12.384827"
       cy="120.240891"
       rx="5.3453903"
       ry="7.7508163" />
  </g>

</svg>
